<?xml version="1.0" standalone="no"?>
<!DOCTYPE svg PUBLIC "-//W3C//DTD SVG 20010904//EN"
 "http://www.w3.org/TR/2001/REC-SVG-20010904/DTD/svg10.dtd">
<svg version="1.0" xmlns="http://www.w3.org/2000/svg"
 width="48.000000pt" height="48.000000pt" viewBox="0 0 48.000000 48.000000"
 preserveAspectRatio="xMidYMid meet">

<g transform="translate(0.000000,48.000000) scale(0.100000,-0.100000)"
fill="#000000" stroke="none">
<path d="M375 331 c-9 -11 -33 -21 -53 -23 -29 -2 -40 -9 -50 -30 -15 -31 -36
-36 -58 -13 -9 8 -24 15 -35 15 -11 0 -22 -7 -25 -15 -8 -20 -38 -19 -54 0
-28 34 -87 -6 -64 -42 15 -24 48 -28 64 -8 16 19 46 20 54 0 7 -19 55 -19 62
0 10 24 43 18 54 -9 5 -14 19 -30 32 -37 12 -7 29 -18 36 -26 28 -28 66 -3 60
39 -4 28 -48 37 -68 14 -18 -23 -27 -20 -44 13 -14 26 -14 32 0 60 13 25 22
31 49 31 20 0 35 -6 39 -15 7 -18 47 -20 64 -3 18 18 14 46 -7 58 -27 14 -35
13 -56 -9z m55 -20 c0 -27 -19 -36 -37 -18 -18 18 -9 37 18 37 12 0 19 -7 19
-19z m-342 -87 c-19 -19 -38 -11 -38 16 0 24 21 31 40 14 12 -12 12 -16 -2
-30z m113 2 c-16 -19 -41 -10 -41 14 0 24 21 31 39 14 11 -10 12 -16 2 -28z
m184 -51 c0 -13 -8 -21 -22 -23 -17 -3 -23 2 -23 16 0 10 3 22 7 26 13 13 38
1 38 -19z"/>
</g>
</svg>
